<svg width="25" height="24" viewBox="0 0 25 24" fill="none" xmlns="http://www.w3.org/2000/svg">
<g clip-path="url(#clip0_47_354)">
<path fill-rule="evenodd" clip-rule="evenodd" d="M12.3328 8C10.1237 8 8.33283 9.79086 8.33283 12C8.33283 14.2091 10.1237 16 12.3328 16C14.542 16 16.3328 14.2091 16.3328 12C16.3328 9.79086 14.542 8 12.3328 8ZM10.3328 12C10.3328 10.8954 11.2283 10 12.3328 10C13.4374 10 14.3328 10.8954 14.3328 12C14.3328 13.1046 13.4374 14 12.3328 14C11.2283 14 10.3328 13.1046 10.3328 12Z" fill="#EF7F38"/>
<path fill-rule="evenodd" clip-rule="evenodd" d="M24.2269 11.5521C24.2271 11.5525 24.2273 11.5528 23.3328 12C24.2273 12.4472 24.2271 12.4475 24.2269 12.4479L24.2253 12.4511L24.2218 12.458L24.2105 12.4802C24.201 12.4987 24.1875 12.5247 24.1701 12.5576C24.1353 12.6233 24.0848 12.7168 24.0189 12.834C23.887 13.0684 23.693 13.3985 23.4385 13.7925C22.9308 14.5787 22.176 15.6294 21.1874 16.6839C19.2284 18.7736 16.2323 21 12.3328 21C8.43332 21 5.43731 18.7736 3.47829 16.6839C2.48967 15.6294 1.7349 14.5787 1.22717 13.7925C0.972682 13.3985 0.778624 13.0684 0.646803 12.834C0.580855 12.7168 0.530372 12.6233 0.495585 12.5576C0.478189 12.5247 0.464707 12.4987 0.45517 12.4802L0.443822 12.458L0.440371 12.4511L0.439202 12.4488C0.439018 12.4484 0.438405 12.4472 1.33283 12C0.438405 11.5528 0.438573 11.5525 0.438757 11.5521L0.440371 11.5489L0.443822 11.542L0.45517 11.5198C0.464707 11.5013 0.478189 11.4753 0.495585 11.4424C0.530372 11.3767 0.580855 11.2832 0.646803 11.166C0.778624 10.9316 0.972682 10.6015 1.22717 10.2075C1.7349 9.42131 2.48967 8.3706 3.47829 7.31606C5.43731 5.22644 8.43332 3 12.3328 3C16.2323 3 19.2284 5.22644 21.1874 7.31606C22.176 8.3706 22.9308 9.42131 23.4385 10.2075C23.693 10.6015 23.887 10.9316 24.0189 11.166C24.0848 11.2832 24.1353 11.3767 24.1701 11.4424C24.1875 11.4753 24.201 11.5013 24.2105 11.5198L24.2218 11.542L24.2253 11.5489L24.2269 11.5521ZM2.90725 12.7075C2.72775 12.4296 2.58286 12.1889 2.47357 12C2.58286 11.8111 2.72775 11.5704 2.90725 11.2925C3.36827 10.5787 4.051 9.6294 4.93737 8.68394C6.72835 6.77356 9.23234 5 12.3328 5C15.4333 5 17.9373 6.77356 19.7283 8.68394C20.6147 9.6294 21.2974 10.5787 21.7584 11.2925C21.9379 11.5704 22.0828 11.8111 22.1921 12C22.0828 12.1889 21.9379 12.4296 21.7584 12.7075C21.2974 13.4213 20.6147 14.3706 19.7283 15.3161C17.9373 17.2264 15.4333 19 12.3328 19C9.23234 19 6.72835 17.2264 4.93737 15.3161C4.051 14.3706 3.36827 13.4213 2.90725 12.7075Z" fill="#EF7F38"/>
<path d="M23.3328 12L24.2269 11.5521C24.3677 11.8336 24.3677 12.1664 24.2269 12.4479L23.3328 12Z" fill="#EF7F38"/>
<path d="M0.438757 11.5521L1.33283 12L0.438405 12.4472C0.297641 12.1657 0.297993 11.8336 0.438757 11.5521Z" fill="#EF7F38"/>
</g>
<defs>
<clipPath id="clip0_47_354">
<rect width="24" height="24" fill="white" transform="translate(0.333008)"/>
</clipPath>
</defs>
</svg>
