<svg width="25" height="24" viewBox="0 0 25 24" fill="none" xmlns="http://www.w3.org/2000/svg">
<g clip-path="url(#clip0_47_360)">
<path d="M17.2127 3C16.2913 3.05633 15.3966 3.34287 14.6051 3.83519C13.823 4.32163 13.1645 4.99471 12.6843 5.79819C12.6765 5.81118 12.6727 5.81767 12.667 5.81767C12.6613 5.81767 12.6574 5.81118 12.6497 5.79819C12.1695 4.99471 11.511 4.32163 10.7289 3.83519C9.93736 3.34287 9.04273 3.05633 8.12128 3C6.67471 3 5.28739 3.59576 4.26452 4.65622C3.24164 5.71669 2.66699 7.15498 2.66699 8.6547C2.66699 14.0547 12.667 21 12.667 21C12.667 21 22.667 14.1272 22.667 8.6547C22.667 7.15498 22.0923 5.71669 21.0695 4.65622C20.0466 3.59576 18.6593 3 17.2127 3Z" stroke="#EF7F38" stroke-width="2" stroke-linecap="round" stroke-linejoin="round"/>
</g>
<defs>
<clipPath id="clip0_47_360">
<rect width="24" height="24" fill="white" transform="translate(0.666992)"/>
</clipPath>
</defs>
</svg>
