<svg width="25" height="24" viewBox="0 0 25 24" fill="none" xmlns="http://www.w3.org/2000/svg">
<path fill-rule="evenodd" clip-rule="evenodd" d="M4.17285 1C2.516 1 1.17285 2.34315 1.17285 4C1.17285 5.65685 2.516 7 4.17285 7C5.82971 7 7.17285 5.65685 7.17285 4C7.17285 2.34315 5.82971 1 4.17285 1ZM3.17285 4C3.17285 3.44772 3.62057 3 4.17285 3C4.72514 3 5.17285 3.44772 5.17285 4C5.17285 4.55228 4.72514 5 4.17285 5C3.62057 5 3.17285 4.55228 3.17285 4Z" fill="#EF7F38"/>
<path fill-rule="evenodd" clip-rule="evenodd" d="M16.1729 7C14.3163 7 12.5359 7.7375 11.2231 9.05025C9.91035 10.363 9.17285 12.1435 9.17285 14V21C9.17285 21.5523 9.62057 22 10.1729 22H14.1729C14.7251 22 15.1729 21.5523 15.1729 21V14C15.1729 13.7348 15.2782 13.4804 15.4657 13.2929C15.6533 13.1054 15.9076 13 16.1729 13C16.4381 13 16.6924 13.1054 16.88 13.2929C17.0675 13.4804 17.1729 13.7348 17.1729 14V21C17.1729 21.5523 17.6206 22 18.1729 22H22.1729C22.7251 22 23.1729 21.5523 23.1729 21V14C23.1729 12.1435 22.4354 10.363 21.1226 9.05025C19.8098 7.7375 18.0294 7 16.1729 7ZM16.1729 9C14.8468 9 13.575 9.52678 12.6373 10.4645C11.6996 11.4021 11.1729 12.6739 11.1729 14V20H13.1729V14C13.1729 13.2043 13.4889 12.4413 14.0515 11.8787C14.6141 11.3161 15.3772 11 16.1729 11C16.9685 11 17.7316 11.3161 18.2942 11.8787C18.8568 12.4413 19.1729 13.2043 19.1729 14V20H21.1729V14C21.1729 12.6739 20.6461 11.4021 19.7084 10.4645C18.7707 9.52678 17.4989 9 16.1729 9Z" fill="#EF7F38"/>
<path fill-rule="evenodd" clip-rule="evenodd" d="M1.17285 9C1.17285 8.44772 1.62057 8 2.17285 8H6.17285C6.72514 8 7.17285 8.44772 7.17285 9V21C7.17285 21.5523 6.72514 22 6.17285 22H2.17285C1.62057 22 1.17285 21.5523 1.17285 21V9ZM3.17285 10V20H5.17285V10H3.17285Z" fill="#EF7F38"/>
</svg>
