<svg width="25" height="24" viewBox="0 0 25 24" fill="none" xmlns="http://www.w3.org/2000/svg">
<g clip-path="url(#clip0_47_2466)">
<path d="M18.1729 8.95304C18.1729 10.3001 17.8681 11.6298 17.2813 12.8424L15.1755 17.1944C14.146 19.3221 13.6312 20.3859 12.8999 20.6713C12.4324 20.8537 11.9133 20.8537 11.4458 20.6713C10.7145 20.3859 10.1997 19.3221 9.1702 17.1944L7.06439 12.8424C6.47764 11.6298 6.17285 10.3001 6.17285 8.95304V8.95304C6.17285 5.66527 8.88508 3 12.1729 3V3C15.4606 3 18.1729 5.66527 18.1729 8.95304V8.95304Z" stroke="#EF7F38" stroke-width="2"/>
<path d="M14.1729 9C14.1729 10.1046 13.2774 11 12.1729 11C11.0683 11 10.1729 10.1046 10.1729 9C10.1729 7.89543 11.0683 7 12.1729 7C13.2774 7 14.1729 7.89543 14.1729 9Z" fill="#EF7F38"/>
</g>
<defs>
<clipPath id="clip0_47_2466">
<rect width="24" height="24" fill="white" transform="translate(0.172852)"/>
</clipPath>
</defs>
</svg>
