<svg width="25" height="24" viewBox="0 0 25 24" fill="none" xmlns="http://www.w3.org/2000/svg">
<path fill-rule="evenodd" clip-rule="evenodd" d="M1.17299 5.98266C1.17282 5.99253 1.17281 6.00239 1.17294 6.01225V18C1.17294 19.6523 2.52065 21 4.17294 21H20.1729C21.8252 21 23.1729 19.6523 23.1729 18V6.01236C23.1731 6.00242 23.1731 5.99247 23.1729 5.98251C23.1634 4.33822 21.8194 3 20.1729 3H4.17294C2.52644 3 1.18238 4.3383 1.17299 5.98266ZM3.27951 5.55395C3.4449 5.22692 3.78498 5 4.17294 5H20.1729C20.5609 5 20.901 5.22692 21.0664 5.55395L12.1729 11.7793L3.27951 5.55395ZM21.1729 7.92066V18C21.1729 18.5477 20.7207 19 20.1729 19H4.17294C3.62522 19 3.17294 18.5477 3.17294 18V7.92066L11.5995 13.8192C11.9438 14.0603 12.4021 14.0603 12.7464 13.8192L21.1729 7.92066Z" fill="#EF7F38"/>
</svg>
