<svg width="32" height="32" viewBox="0 0 32 32" fill="none" xmlns="http://www.w3.org/2000/svg">
<rect width="32" height="32" rx="4" fill="white"/>
<path d="M6 10C6 9.44772 6.44772 9 7 9H25C25.5523 9 26 9.44772 26 10C26 10.5523 25.5523 11 25 11H7C6.44772 11 6 10.5523 6 10Z" fill="#EF7F38"/>
<path d="M6 16C6 15.4477 6.44772 15 7 15H25C25.5523 15 26 15.4477 26 16C26 16.5523 25.5523 17 25 17H7C6.44772 17 6 16.5523 6 16Z" fill="#EF7F38"/>
<path d="M7 21C6.44772 21 6 21.4477 6 22C6 22.5523 6.44772 23 7 23H25C25.5523 23 26 22.5523 26 22C26 21.4477 25.5523 21 25 21H7Z" fill="#EF7F38"/>
</svg>
