<svg width="24" height="24" viewBox="0 0 24 24" fill="none" xmlns="http://www.w3.org/2000/svg">
<g clip-path="url(#clip0_47_373)">
<path d="M11.8125 23.0625C11.7759 23.0625 11.7388 23.0599 11.7015 23.0544C11.4144 23.0113 11.1774 22.8062 11.094 22.5278L6.594 7.52775C6.51487 7.26375 6.58706 6.97725 6.78225 6.78206C6.97781 6.58688 7.266 6.51431 7.52794 6.59381L22.5279 11.0938C22.8062 11.1772 23.0113 11.4143 23.0546 11.7013C23.0976 11.9888 22.9704 12.2753 22.7288 12.4363L18.9902 14.9288L22.8431 18.7821C23.1362 19.0751 23.1362 19.5497 22.8431 19.8426L19.8431 22.8426C19.5501 23.1356 19.0755 23.1356 18.7826 22.8426L14.9293 18.9896L12.4369 22.7282C12.2963 22.9391 12.0608 23.0625 11.8125 23.0625ZM14.8125 17.0625C15.0107 17.0625 15.2014 17.1409 15.3428 17.2822L19.3125 21.252L21.2518 19.3125L17.2822 15.3428C17.1232 15.1838 17.0441 14.9623 17.0662 14.7384C17.0882 14.5151 17.2095 14.3128 17.3966 14.1883L20.5702 12.0728L8.4315 8.43112L12.0731 20.5699L14.1887 17.3962C14.3132 17.2091 14.5153 17.0878 14.7388 17.0659C14.7634 17.0636 14.7879 17.0625 14.8125 17.0625ZM4.84275 4.84275C5.13581 4.54969 5.13581 4.07513 4.84275 3.78225L3.34275 2.28225C3.04969 1.98919 2.57512 1.98919 2.28225 2.28225C1.98937 2.57531 1.98919 3.04987 2.28225 3.34275L3.78225 4.84275C3.92869 4.98919 4.1205 5.0625 4.3125 5.0625C4.5045 5.0625 4.69631 4.98919 4.84275 4.84275ZM4.3125 7.3125C4.3125 6.89831 3.97669 6.5625 3.5625 6.5625H1.3125C0.898312 6.5625 0.5625 6.89831 0.5625 7.3125C0.5625 7.72669 0.898312 8.0625 1.3125 8.0625H3.5625C3.97669 8.0625 4.3125 7.72669 4.3125 7.3125ZM3.34275 12.3428L4.84275 10.8427C5.13581 10.5497 5.13581 10.0751 4.84275 9.78225C4.54969 9.48938 4.07513 9.48919 3.78225 9.78225L2.28225 11.2823C1.98919 11.5753 1.98919 12.0499 2.28225 12.3428C2.42869 12.4892 2.6205 12.5625 2.8125 12.5625C3.0045 12.5625 3.19631 12.4892 3.34275 12.3428ZM10.8427 4.84275L12.3428 3.34275C12.6358 3.04969 12.6358 2.57512 12.3428 2.28225C12.0497 1.98937 11.5751 1.98919 11.2823 2.28225L9.78225 3.78225C9.48919 4.07531 9.48919 4.54987 9.78225 4.84275C9.92869 4.98919 10.1205 5.0625 10.3125 5.0625C10.5045 5.0625 10.6963 4.98919 10.8427 4.84275ZM8.0625 3.5625V1.3125C8.0625 0.898312 7.72669 0.5625 7.3125 0.5625C6.89831 0.5625 6.5625 0.898312 6.5625 1.3125V3.5625C6.5625 3.97669 6.89831 4.3125 7.3125 4.3125C7.72669 4.3125 8.0625 3.97669 8.0625 3.5625Z" fill="#EF7F38"/>
</g>
<defs>
<clipPath id="clip0_47_373">
<rect width="24" height="24" fill="white"/>
</clipPath>
</defs>
</svg>
